# xmcd
#
# Track frame offsets:
#	150
#	13471
#	26869
#	38975
#	53868
#	65180
#	77122
#	88892
#	101714
#	114940
#	127253
#	141229
#	155145
#	172896
#	186232
#	197283
#	208451
#	222865
#	236862
#
# Disc length: 3345 seconds
#
# Revision: 1
# Processed by: cddbd v1.5.1PL2 Copyright (c) Steve Scherf et al.
# Submitted via: audiograbber 1.83.01
#
DISCID=2b0d0f13
DTITLE=Sam and Dave - Soul Men
DYEAR=1900
DGENRE=Soul
TTITLE0=Soul Man
TTITLE1=I Thank You
TTITLE2=Hold On I'm Comin'
TTITLE3=When Something Is Wrong With My Baby
TTITLE4=You Don't Know What You Mean To Me
TTITLE5=Soul Sister, Brown Sugar
TTITLE6=Can't Find Another Way (Of Doing It)
TTITLE7=Said I Wasn't Gonna Tell Nobody
TTITLE8=You Got Me Hummin
TTITLE9=You Don't Know Like I Know
TTITLE10=Don't Pull Your Love Out On Me Baby
TTITLE11=Gimme Some Loving
TTITLE12=Cupid
TTITLE13=(Sittin' On) The Dock Of The Bay
TTITLE14=Bring It On Home To Me
TTITLE15=Another Saturday Night
TTITLE16=You Send Me
TTITLE17=Summertime
TTITLE18=Wonderful World
EXTD=
EXTT0=
EXTT1=
EXTT2=
EXTT3=
EXTT4=
EXTT5=
EXTT6=
EXTT7=
EXTT8=
EXTT9=
EXTT10=
EXTT11=
EXTT12=
EXTT13=
EXTT14=
EXTT15=
EXTT16=
EXTT17=
EXTT18=
PLAYORDER=
